<svg xmlns="http://www.w3.org/2000/svg" viewBox="0 0 450 500" width="450" height="500" role="img" aria-label="dynamicColorScheme/DynamicColorSchemeSample layout wireframe">
  <title>dynamicColorScheme/DynamicColorSchemeSample — layout wireframe (slots + tokens)</title>
  <rect width="450" height="500" fill="#ffffff"/>
  <g>
    <rect x="0" y="0" width="450" height="450" fill="none" fill-opacity="0" stroke="#5B6470" stroke-width="1" stroke-opacity="0.5"/>
  </g>
  <g>
    <rect x="0" y="0" width="450" height="450" fill="none" fill-opacity="0" stroke="#2E7D6B" stroke-width="1" stroke-opacity="0.5"/>
  </g>
  <g>
    <rect x="0" y="0" width="450" height="450" fill="none" fill-opacity="0" stroke="#8E6BA8" stroke-width="1" stroke-opacity="0.5"/>
  </g>
  <g>
    <rect x="40" y="40" width="370" height="74" fill="none" fill-opacity="0" stroke="#B0813B" stroke-width="1" stroke-opacity="0.5"/>
  </g>
  <g>
    <path d="M108,134 H342 A40,40 0 0 1 382,174 V174 A40,40 0 0 1 342,214 H108 A40,40 0 0 1 68,174 V174 A40,40 0 0 1 108,134 Z" fill="#E9DDFF" fill-opacity="1" stroke="#B0813B" stroke-width="1.5" stroke-opacity="1"/>
    <text x="71" y="146" font-family="system-ui, sans-serif" font-size="9" fill="#B0813B">#FFE9DDFF  pad ·</text>
  </g>
  <g>
    <rect x="68" y="156" width="228" height="36" fill="none" fill-opacity="0" stroke="#3B72A8" stroke-width="1" stroke-opacity="0.5"/>
  </g>
  <g>
    <rect x="68" y="156" width="228" height="36" fill="none" fill-opacity="0" stroke="#A85B6B" stroke-width="1" stroke-opacity="0.5"/>
  </g>
  <g>
    <rect x="68" y="156" width="228" height="36" fill="none" fill-opacity="0" stroke="#4F8A4A" stroke-width="1" stroke-opacity="0.5"/>
  </g>
  <g>
    <path d="M108,246 H342 A40,40 0 0 1 382,286 V286 A40,40 0 0 1 342,326 H108 A40,40 0 0 1 68,286 V286 A40,40 0 0 1 108,246 Z" fill="#E9DDFF" fill-opacity="1" stroke="#B0813B" stroke-width="1.5" stroke-opacity="1"/>
    <text x="71" y="258" font-family="system-ui, sans-serif" font-size="9" fill="#B0813B">#FFE9DDFF  pad ·</text>
  </g>
  <g>
    <rect x="68" y="268" width="232" height="36" fill="none" fill-opacity="0" stroke="#3B72A8" stroke-width="1" stroke-opacity="0.5"/>
  </g>
  <g>
    <rect x="68" y="268" width="232" height="36" fill="none" fill-opacity="0" stroke="#A85B6B" stroke-width="1" stroke-opacity="0.5"/>
  </g>
  <g>
    <rect x="68" y="268" width="232" height="36" fill="none" fill-opacity="0" stroke="#4F8A4A" stroke-width="1" stroke-opacity="0.5"/>
  </g>
  <g>
    <path d="M126.5,356 H323.5 A33.5,33.5 0 0 1 357,389.5 V389.5 A33.5,33.5 0 0 1 323.5,423 H126.5 A33.5,33.5 0 0 1 93,389.5 V389.5 A33.5,33.5 0 0 1 126.5,356 Z" fill="#E9DDFF" fill-opacity="1" stroke="#B0813B" stroke-width="1.5" stroke-opacity="1"/>
    <text x="96" y="368" font-family="system-ui, sans-serif" font-size="9" fill="#B0813B">#FFE9DDFF  pad ·</text>
  </g>
  <g>
    <rect x="93" y="375" width="196" height="30" fill="none" fill-opacity="0" stroke="#3B72A8" stroke-width="1" stroke-opacity="0.5"/>
  </g>
  <g>
    <rect x="93" y="375" width="196" height="30" fill="none" fill-opacity="0" stroke="#A85B6B" stroke-width="1" stroke-opacity="0.5"/>
  </g>
  <g>
    <rect x="93" y="375" width="196" height="30" fill="none" fill-opacity="0" stroke="#4F8A4A" stroke-width="1" stroke-opacity="0.5"/>
  </g>
  <g>
    <path d="M151,450 H299 A25,25 0 0 1 324,475 V475 A25,25 0 0 1 299,500 H151 A25,25 0 0 1 126,475 V475 A25,25 0 0 1 151,450 Z" fill="#E9DDFF" fill-opacity="1" stroke="#B0813B" stroke-width="1.5" stroke-opacity="1"/>
    <text x="129" y="462" font-family="system-ui, sans-serif" font-size="9" fill="#B0813B">#FFE9DDFF  pad ·</text>
  </g>
  <g>
    <rect x="126" y="464" width="147" height="22" fill="none" fill-opacity="0" stroke="#3B72A8" stroke-width="1" stroke-opacity="0.5"/>
  </g>
  <g>
    <rect x="126" y="464" width="147" height="22" fill="none" fill-opacity="0" stroke="#A85B6B" stroke-width="1" stroke-opacity="0.5"/>
  </g>
  <g>
    <rect x="126" y="464" width="147" height="22" fill="none" fill-opacity="0" stroke="#4F8A4A" stroke-width="1" stroke-opacity="0.5"/>
  </g>
</svg>
