<svg xmlns="http://www.w3.org/2000/svg" viewBox="0 0 450 532" width="450" height="532" role="img" aria-label="ScrollIndicator/ScrollIndicatorWithTLCSample layout wireframe">
  <title>ScrollIndicator/ScrollIndicatorWithTLCSample — layout wireframe (slots + tokens)</title>
  <rect width="450" height="532" fill="#ffffff"/>
  <g>
    <rect x="0" y="0" width="450" height="450" fill="none" fill-opacity="0" stroke="#5B6470" stroke-width="1" stroke-opacity="0.5"/>
  </g>
  <g>
    <rect x="0" y="0" width="450" height="450" fill="none" fill-opacity="0" stroke="#2E7D6B" stroke-width="1" stroke-opacity="0.5"/>
  </g>
  <g>
    <rect x="0" y="0" width="450" height="450" fill="none" fill-opacity="0" stroke="#8E6BA8" stroke-width="1" stroke-opacity="0.5"/>
  </g>
  <g>
    <rect x="0" y="0" width="450" height="450" fill="#000000" fill-opacity="1" stroke="#B0813B" stroke-width="1.5" stroke-opacity="1"/>
    <text x="3" y="12" font-family="system-ui, sans-serif" font-size="9" fill="#B0813B">#FF000000</text>
  </g>
  <g>
    <path d="M92,116 H358 A40,40 0 0 1 398,156 V156 A40,40 0 0 1 358,196 H92 A40,40 0 0 1 52,156 V156 A40,40 0 0 1 92,116 Z" fill="#E9DDFF" fill-opacity="1" stroke="#3B72A8" stroke-width="1.5" stroke-opacity="1"/>
    <text x="55" y="128" font-family="system-ui, sans-serif" font-size="9" fill="#3B72A8">#FFE9DDFF  pad ·</text>
  </g>
  <g>
    <rect x="52" y="138" width="119" height="36" fill="none" fill-opacity="0" stroke="#A85B6B" stroke-width="1" stroke-opacity="0.5"/>
  </g>
  <g>
    <rect x="52" y="138" width="119" height="36" fill="none" fill-opacity="0" stroke="#4F8A4A" stroke-width="1" stroke-opacity="0.5"/>
  </g>
  <g>
    <rect x="52" y="138" width="119" height="36" fill="none" fill-opacity="0" stroke="#7A7A33" stroke-width="1" stroke-opacity="0.5"/>
  </g>
  <g>
    <path d="M92,228 H358 A40,40 0 0 1 398,268 V268 A40,40 0 0 1 358,308 H92 A40,40 0 0 1 52,268 V268 A40,40 0 0 1 92,228 Z" fill="#E9DDFF" fill-opacity="1" stroke="#3B72A8" stroke-width="1.5" stroke-opacity="1"/>
    <text x="55" y="240" font-family="system-ui, sans-serif" font-size="9" fill="#3B72A8">#FFE9DDFF  pad ·</text>
  </g>
  <g>
    <rect x="52" y="250" width="113" height="36" fill="none" fill-opacity="0" stroke="#A85B6B" stroke-width="1" stroke-opacity="0.5"/>
  </g>
  <g>
    <rect x="52" y="250" width="113" height="36" fill="none" fill-opacity="0" stroke="#4F8A4A" stroke-width="1" stroke-opacity="0.5"/>
  </g>
  <g>
    <rect x="52" y="250" width="113" height="36" fill="none" fill-opacity="0" stroke="#7A7A33" stroke-width="1" stroke-opacity="0.5"/>
  </g>
  <g>
    <path d="M92,340 H358 A40,40 0 0 1 398,380 V380 A40,40 0 0 1 358,420 H92 A40,40 0 0 1 52,380 V380 A40,40 0 0 1 92,340 Z" fill="#E9DDFF" fill-opacity="1" stroke="#3B72A8" stroke-width="1.5" stroke-opacity="1"/>
    <text x="55" y="352" font-family="system-ui, sans-serif" font-size="9" fill="#3B72A8">#FFE9DDFF  pad ·</text>
  </g>
  <g>
    <rect x="52" y="362" width="116" height="36" fill="none" fill-opacity="0" stroke="#A85B6B" stroke-width="1" stroke-opacity="0.5"/>
  </g>
  <g>
    <rect x="52" y="362" width="116" height="36" fill="none" fill-opacity="0" stroke="#4F8A4A" stroke-width="1" stroke-opacity="0.5"/>
  </g>
  <g>
    <rect x="52" y="362" width="116" height="36" fill="none" fill-opacity="0" stroke="#7A7A33" stroke-width="1" stroke-opacity="0.5"/>
  </g>
  <g>
    <path d="M92,452 H358 A40,40 0 0 1 398,492 V492 A40,40 0 0 1 358,532 H92 A40,40 0 0 1 52,492 V492 A40,40 0 0 1 92,452 Z" fill="#E9DDFF" fill-opacity="1" stroke="#3B72A8" stroke-width="1.5" stroke-opacity="1"/>
    <text x="55" y="464" font-family="system-ui, sans-serif" font-size="9" fill="#3B72A8">#FFE9DDFF  pad ·</text>
  </g>
  <g>
    <rect x="52" y="474" width="117" height="36" fill="none" fill-opacity="0" stroke="#A85B6B" stroke-width="1" stroke-opacity="0.5"/>
  </g>
  <g>
    <rect x="52" y="474" width="117" height="36" fill="none" fill-opacity="0" stroke="#4F8A4A" stroke-width="1" stroke-opacity="0.5"/>
  </g>
  <g>
    <rect x="52" y="474" width="117" height="36" fill="none" fill-opacity="0" stroke="#7A7A33" stroke-width="1" stroke-opacity="0.5"/>
  </g>
  <g>
    <rect x="428" y="169" width="22" height="112" fill="none" fill-opacity="0" stroke="#B0813B" stroke-width="1" stroke-opacity="0.5"/>
  </g>
  <g>
    <rect x="0" y="0" width="450" height="450" fill="none" fill-opacity="0" stroke="#B0813B" stroke-width="1" stroke-opacity="0.5"/>
  </g>
  <g>
    <rect x="184" y="8" width="82" height="36" fill="none" fill-opacity="0" stroke="#3B72A8" stroke-width="1" stroke-opacity="0.5"/>
  </g>
</svg>
