<svg xmlns="http://www.w3.org/2000/svg" viewBox="0 0 450 450" width="450" height="450" role="img" aria-label="SwipeToReveal/SwipeToRevealSingleActionCardSample layout wireframe">
  <title>SwipeToReveal/SwipeToRevealSingleActionCardSample — layout wireframe (slots + tokens)</title>
  <rect width="450" height="450" fill="#ffffff"/>
  <g>
    <rect x="0" y="0" width="450" height="450" fill="none" fill-opacity="0" stroke="#5B6470" stroke-width="1" stroke-opacity="0.5"/>
  </g>
  <g>
    <rect x="0" y="0" width="450" height="450" fill="none" fill-opacity="0" stroke="#2E7D6B" stroke-width="1" stroke-opacity="0.5"/>
  </g>
  <g>
    <rect x="0" y="0" width="450" height="450" fill="none" fill-opacity="0" stroke="#8E6BA8" stroke-width="1" stroke-opacity="0.5"/>
  </g>
  <g>
    <rect x="0" y="0" width="450" height="450" fill="none" fill-opacity="0" stroke="#B0813B" stroke-width="1" stroke-opacity="0.5"/>
  </g>
  <g>
    <path d="M76,24 H374 A52,52 0 0 1 426,76 V374 A52,52 0 0 1 374,426 H76 A52,52 0 0 1 24,374 V76 A52,52 0 0 1 76,24 Z" fill="#332E3C" fill-opacity="1" stroke="#3B72A8" stroke-width="1.5" stroke-opacity="1"/>
    <text x="27" y="36" font-family="system-ui, sans-serif" font-size="9" fill="#3B72A8">#FF332E3C  pad 12.0dp</text>
  </g>
  <g>
    <rect x="24" y="24" width="402" height="402" fill="none" fill-opacity="0" stroke="#A85B6B" stroke-width="1" stroke-opacity="0.5"/>
  </g>
</svg>
