<svg xmlns="http://www.w3.org/2000/svg" viewBox="0 0 450 450" width="450" height="450" role="img" aria-label="TransformationSpec/CustomTransformationSpecSample layout wireframe">
  <title>TransformationSpec/CustomTransformationSpecSample — layout wireframe (slots + tokens)</title>
  <rect width="450" height="450" fill="#ffffff"/>
  <g>
    <rect x="0" y="0" width="450" height="450" fill="none" fill-opacity="0" stroke="#5B6470" stroke-width="1" stroke-opacity="0.5"/>
  </g>
  <g>
    <rect x="0" y="0" width="450" height="450" fill="none" fill-opacity="0" stroke="#2E7D6B" stroke-width="1" stroke-opacity="0.5"/>
  </g>
  <g>
    <rect x="0" y="0" width="450" height="450" fill="#000000" fill-opacity="1" stroke="#8E6BA8" stroke-width="1.5" stroke-opacity="1"/>
    <text x="3" y="12" font-family="system-ui, sans-serif" font-size="9" fill="#8E6BA8">#FF000000</text>
  </g>
  <g>
    <path d="M116,52 H334 A37,37 0 0 1 371,89 V89 A37,37 0 0 1 334,126 H116 A37,37 0 0 1 79,89 V89 A37,37 0 0 1 116,52 Z" fill="#E9DDFF" fill-opacity="1" stroke="#B0813B" stroke-width="1.5" stroke-opacity="1"/>
    <text x="82" y="64" font-family="system-ui, sans-serif" font-size="9" fill="#B0813B">#FFE9DDFF  pad ·</text>
  </g>
  <g>
    <rect x="79" y="73" width="83" height="33" fill="none" fill-opacity="0" stroke="#3B72A8" stroke-width="1" stroke-opacity="0.5"/>
  </g>
  <g>
    <path d="M108,158 H342 A40,40 0 0 1 382,198 V198 A40,40 0 0 1 342,238 H108 A40,40 0 0 1 68,198 V198 A40,40 0 0 1 108,158 Z" fill="#E9DDFF" fill-opacity="1" stroke="#B0813B" stroke-width="1.5" stroke-opacity="1"/>
    <text x="71" y="170" font-family="system-ui, sans-serif" font-size="9" fill="#B0813B">#FFE9DDFF  pad ·</text>
  </g>
  <g>
    <rect x="68" y="180" width="83" height="36" fill="none" fill-opacity="0" stroke="#3B72A8" stroke-width="1" stroke-opacity="0.5"/>
  </g>
  <g>
    <path d="M106,272 H344 A38,38 0 0 1 382,310 V310 A38,38 0 0 1 344,348 H106 A38,38 0 0 1 68,310 V310 A38,38 0 0 1 106,272 Z" fill="#E9DDFF" fill-opacity="1" stroke="#B0813B" stroke-width="1.5" stroke-opacity="1"/>
    <text x="71" y="284" font-family="system-ui, sans-serif" font-size="9" fill="#B0813B">#FFE9DDFF  pad ·</text>
  </g>
  <g>
    <rect x="68" y="293" width="87" height="34" fill="none" fill-opacity="0" stroke="#3B72A8" stroke-width="1" stroke-opacity="0.5"/>
  </g>
  <g>
    <path d="M105.5,420 H344.5 A1.5,1.5 0 0 1 346,421.5 V421.5 A1.5,1.5 0 0 1 344.5,423 H105.5 A1.5,1.5 0 0 1 104,421.5 V421.5 A1.5,1.5 0 0 1 105.5,420 Z" fill="#E9DDFF" fill-opacity="1" stroke="#B0813B" stroke-width="1.5" stroke-opacity="1"/>
    <text x="107" y="432" font-family="system-ui, sans-serif" font-size="9" fill="#B0813B">#FFE9DDFF  pad ·</text>
  </g>
  <g>
    <rect x="104" y="421" width="67" height="1" fill="none" fill-opacity="0" stroke="#3B72A8" stroke-width="1" stroke-opacity="0.5"/>
  </g>
</svg>
